<svg width="800" height="600" xmlns="http://www.w3.org/2000/svg">
 <g>
  <title>Layer 1</title>
  <path stroke="#000" fill="#000000" stroke-width="null" stroke-dasharray="null" stroke-opacity="null" opacity="undefined" d="m342.84065,437.42592c18.3756,-17.73279 31.81261,-40.18849 43.07161,-62.94162c6.87787,-9.075 0.36623,-17.01425 -9.00183,-9.3188c-24.07579,16.07495 -56.84848,21.58751 -82.91551,6.92194c-29.46779,-15.23779 -42.75618,-51.47162 -36.07021,-83.04361c4.23415,-31.99545 27.52112,-57.07481 52.80524,-75.08997c29.04437,-20.7771 60.40868,-38.61331 86.95355,-62.67224c11.08365,0.22219 19.42508,17.61496 31.35349,22.21747c31.67316,23.59131 69.20874,40.95643 94.15042,72.50237c12.60098,17.9752 19.78281,40.10946 20.58459,61.98948c-3.83926,29.67093 -21.5314,60.96272 -52.04169,69.41241c-26.37521,7.98038 -53.51129,-2.14038 -76.49545,-15.01619c-2.80743,-0.60251 -13.10471,-8.7151 -9.02362,-2.41039c13.74066,28.19803 28.79581,56.19804 50.59952,79.09325c1.28156,2.89285 11.33243,9.75613 5.98334,9.64709c-44.76935,0 -89.53856,0 -134.30794,0c4.78471,-3.7637 9.5696,-7.5275 14.35449,-11.2912l0,0.00001z" id="svg_12"/>
  <text stroke="#000" transform="matrix(4.970478957647231,0,0,5.400737436032273,-1030.5098853361,-1310.7176145259607) " font-style="normal" font-weight="normal" xml:space="preserve" text-anchor="start" font-family="'Tangerine'" font-size="24" id="svg_1" y="304.14043" x="261.5113" opacity="undefined" stroke-opacity="null" stroke-dasharray="null" stroke-width="0" fill="#ffffff">Sihirbaz</text>
  <text stroke="#000" transform="matrix(2.113661527633667,0,0,1.75,-157.58310616016388,-220.125) " xml:space="preserve" text-anchor="start" font-family="'Tangerine'" font-size="24" id="svg_2" y="377.42076" x="240.81115" opacity="undefined" stroke-opacity="null" stroke-dasharray="null" stroke-width="0" fill="#ffffff">Forum</text>
 </g>

</svg>