<?xml version="1.0" standalone="no"?>
<!DOCTYPE svg PUBLIC "-//W3C//DTD SVG 20010904//EN"
 "http://www.w3.org/TR/2001/REC-SVG-20010904/DTD/svg10.dtd">
<svg version="1.0" xmlns="http://www.w3.org/2000/svg"
 width="1845.000000pt" height="550.000000pt" viewBox="0 0 1845.000000 550.000000"
 preserveAspectRatio="xMidYMid meet">

<g transform="translate(0.000000,550.000000) scale(0.100000,-0.100000)"
fill="#000000" stroke="none">
<path d="M2460 4975 c0 -14 29 -35 35 -26 3 6 -4 15 -15 21 -11 6 -20 8 -20 5z"/>
<path d="M1740 4550 c0 -6 7 -10 15 -10 8 0 15 2 15 4 0 2 -7 6 -15 10 -8 3
-15 1 -15 -4z"/>
<path d="M5950 4440 c-69 -7 -322 -107 -410 -162 -64 -40 -268 -129 -450 -198
-392 -148 -456 -167 -822 -249 -24 -5 -46 -4 -66 5 -35 15 -133 89 -146 111
-4 8 -23 21 -42 29 -19 8 -34 19 -34 24 0 5 -18 14 -39 20 -46 12 -188 101
-386 240 -115 82 -141 96 -146 82 -13 -34 -443 -459 -483 -477 -21 -9 -100
-38 -175 -62 l-136 -46 -176 -4 c-185 -5 -225 1 -217 35 3 10 -4 26 -14 36
-22 24 -23 17 -3 -31 9 -20 13 -44 9 -55 -3 -10 -1 -18 5 -18 7 0 11 -34 11
-95 0 -78 4 -104 21 -137 18 -35 20 -52 15 -105 -6 -55 -4 -68 14 -93 24 -34
25 -65 5 -113 -22 -54 -19 -85 14 -123 38 -43 49 -106 27 -158 -16 -39 -12
-60 18 -86 11 -9 16 -31 16 -75 0 -61 -1 -64 -41 -100 -44 -40 -201 -145 -216
-145 -6 0 -17 -8 -26 -18 -15 -17 -161 -93 -272 -142 -200 -89 -442 -217 -525
-276 -156 -113 -200 -163 -301 -342 -81 -142 -120 -438 -84 -638 16 -94 35
-138 88 -211 53 -74 98 -95 185 -87 55 5 83 15 157 55 91 50 134 83 483 371
402 331 602 472 1013 713 101 59 299 176 439 258 257 151 479 291 885 559 495
326 676 429 1275 728 479 238 594 310 703 438 63 75 117 171 117 210 0 18 5
32 10 32 13 0 13 44 1 84 -5 17 -15 50 -21 74 -15 58 -70 117 -127 136 -49 17
-52 17 -153 6z"/>
</g>
</svg>
